<svg width="58" height="37" viewBox="0 0 58 37" fill="none" xmlns="http://www.w3.org/2000/svg">
<path d="M0.35 36V-1.43051e-06H5.65V15.2C6.48333 13.7667 7.63333 12.65 9.1 11.85C10.6 11.0167 12.25 10.6 14.05 10.6C17.0167 10.6 19.35 11.5333 21.05 13.4C22.75 15.2667 23.6 18.05 23.6 21.75V36H18.35V22.3C18.35 17.5 16.4333 15.1 12.6 15.1C10.6 15.1 8.93333 15.8 7.6 17.2C6.3 18.6 5.65 20.6 5.65 23.2V36H0.35ZM38.2422 36.6C35.1089 36.6 32.5255 35.8333 30.4922 34.3C28.4589 32.7667 27.2922 30.7333 26.9922 28.2H32.3422C32.6089 29.3333 33.2422 30.3167 34.2422 31.15C35.2422 31.95 36.5589 32.35 38.1922 32.35C39.7922 32.35 40.9589 32.0167 41.6922 31.35C42.4255 30.6833 42.7922 29.9167 42.7922 29.05C42.7922 27.7833 42.2755 26.9333 41.2422 26.5C40.2422 26.0333 38.8422 25.6167 37.0422 25.25C35.6422 24.95 34.2422 24.55 32.8422 24.05C31.4755 23.55 30.3255 22.85 29.3922 21.95C28.4922 21.0167 28.0422 19.7667 28.0422 18.2C28.0422 16.0333 28.8755 14.2333 30.5422 12.8C32.2089 11.3333 34.5422 10.6 37.5422 10.6C40.3089 10.6 42.5422 11.2667 44.2422 12.6C45.9755 13.9333 46.9922 15.8167 47.2922 18.25H42.1922C42.0255 17.1833 41.5255 16.35 40.6922 15.75C39.8922 15.15 38.8089 14.85 37.4422 14.85C36.1089 14.85 35.0755 15.1333 34.3422 15.7C33.6089 16.2333 33.2422 16.9333 33.2422 17.8C33.2422 18.6667 33.7422 19.35 34.7422 19.85C35.7755 20.35 37.1255 20.8 38.7922 21.2C40.4589 21.5667 41.9922 22 43.3922 22.5C44.8255 22.9667 45.9755 23.6667 46.8422 24.6C47.7089 25.5333 48.1422 26.9 48.1422 28.7C48.1755 30.9667 47.2922 32.85 45.4922 34.35C43.7255 35.85 41.3089 36.6 38.2422 36.6ZM54.5281 36.3C53.5281 36.3 52.6948 35.9833 52.0281 35.35C51.3948 34.6833 51.0781 33.9 51.0781 33C51.0781 32.0667 51.3948 31.2833 52.0281 30.65C52.6948 29.9833 53.5281 29.65 54.5281 29.65C55.5281 29.65 56.3448 29.9833 56.9781 30.65C57.6115 31.2833 57.9281 32.0667 57.9281 33C57.9281 33.9 57.6115 34.6833 56.9781 35.35C56.3448 35.9833 55.5281 36.3 54.5281 36.3Z" fill="#181717"/>
</svg>
